PathFileType  4	(X/Y/Z) C:\Users\wagnerel85475\Documents\Thesis\opencap-core\Data\3375ffbc-daeb-4a43-b4f7-ac9899cd4c71\MarkerData\PreAugmentation
DataRate	CameraRate	NumFrames	NumMarkers	Units	OrigDataRate	OrigDataStartFrame	OrigNumFrames
60.0	60.0	11	20	m	60.0	617	822
Frame#	Time	Neck			RShoulder			RElbow			RWrist			LShoulder			LElbow			LWrist			midHip			RHip			RKnee			RAnkle			LHip			LKnee			LAnkle			LBigToe			LSmallToe			LHeel			RBigToe			RSmallToe			RHeel			
		X1	Y1	Z1	X2	Y2	Z2	X3	Y3	Z3	X4	Y4	Z4	X5	Y5	Z5	X6	Y6	Z6	X7	Y7	Z7	X8	Y8	Z8	X9	Y9	Z9	X10	Y10	Z10	X11	Y11	Z11	X12	Y12	Z12	X13	Y13	Z13	X14	Y14	Z14	X15	Y15	Z15	X16	Y16	Z16	X17	Y17	Z17	X18	Y18	Z18	X19	Y19	Z19	X20	Y20	Z20	

617	10.2666667	0.6235100	1.3808800	-0.0663300	0.6163900	1.3840900	0.1152600	0.8627000	1.1936600	0.1871200	1.1766200	1.2358600	0.0561300	0.6177800	1.3822000	-0.2450100	0.9192600	1.2083300	-0.2635000	1.1922200	1.2359500	-0.1279500	0.5364700	0.8219500	-0.0442500	0.5548900	0.8228200	0.0806300	0.5542000	0.3334900	0.0852400	0.4968200	-0.1812200	0.1273500	0.5654600	0.8221400	-0.1621800	0.5652600	0.3502200	-0.1880000	0.5286400	-0.1686400	-0.2405600	0.7260800	-0.2263300	-0.3143600	0.6522000	-0.2266500	-0.3482600	0.4714100	-0.2244600	-0.2129900	0.6982600	-0.2350300	0.2246400	0.6547500	-0.2311800	0.2491800	0.5049900	-0.2159000	0.0961700
618	10.2833333	0.6226000	1.3802200	-0.0668200	0.6162700	1.3801300	0.1153600	0.8351600	1.1845900	0.1841200	1.1482500	1.2309500	0.0531300	0.6098900	1.3816600	-0.2408600	0.9263300	1.2050400	-0.2606000	1.1934200	1.2395600	-0.1282000	0.5548600	0.8211200	-0.0447100	0.5557200	0.8236500	0.0802100	0.5518500	0.3414200	0.0862300	0.4961100	-0.1775000	0.1280000	0.5752400	0.8196500	-0.1585400	0.5575200	0.3536700	-0.1860100	0.5283700	-0.1687900	-0.2405600	0.7342600	-0.2237900	-0.3102500	0.6616200	-0.2236400	-0.3444700	0.4728400	-0.2207000	-0.2121600	0.6980600	-0.2354300	0.2245800	0.6546900	-0.2316000	0.2493400	0.5039400	-0.2162100	0.0965400
619	10.3000000	0.6048000	1.3811600	-0.0659200	0.6167300	1.3797000	0.1153000	0.8457300	1.1827000	0.1884800	1.1307900	1.2372000	0.0516100	0.6079000	1.3824700	-0.2410900	0.9280600	1.2017200	-0.2595400	1.1856300	1.2356600	-0.1241900	0.5557200	0.8202600	-0.0446700	0.5651400	0.8190800	0.0758500	0.5525600	0.3414100	0.0859800	0.4967900	-0.1813500	0.1272600	0.5757700	0.8159900	-0.1583600	0.5472400	0.3403300	-0.1817000	0.5286600	-0.1687300	-0.2404700	0.7345500	-0.2234900	-0.3106200	0.6610100	-0.2236700	-0.3443800	0.4717700	-0.2249100	-0.2128400	0.7082000	-0.2316000	0.2273900	0.6549400	-0.2312500	0.2491900	0.5047500	-0.2159500	0.0961700
620	10.3166667	0.5931200	1.3773600	-0.0702600	0.6153100	1.3798900	0.1153100	0.8486600	1.1735400	0.1828200	1.1332400	1.2306900	0.0539400	0.6093600	1.3814100	-0.2410000	0.9273800	1.1962600	-0.2603700	1.1868200	1.2298100	-0.1245800	0.5762900	0.8193700	-0.0376200	0.5759400	0.8214100	0.0786500	0.5516300	0.3381400	0.0864400	0.4966800	-0.1814100	0.1273400	0.5853600	0.8173800	-0.1549100	0.5555700	0.3426400	-0.1776600	0.5284300	-0.1688700	-0.2405900	0.7258800	-0.2267700	-0.3140400	0.6616500	-0.2236100	-0.3445300	0.4714900	-0.2246800	-0.2126700	0.7081300	-0.2318900	0.2273600	0.6654900	-0.2316300	0.2514500	0.5039700	-0.2163900	0.0965700
621	10.3333333	0.5837400	1.3781700	-0.0735400	0.6053900	1.3767700	0.1119400	0.8609500	1.1709500	0.1796700	1.1224100	1.2350800	0.0483200	0.5890700	1.3825900	-0.2409900	0.9278200	1.1952800	-0.2594200	1.1646500	1.2309200	-0.1199600	0.5862400	0.8195000	-0.0420800	0.5934700	0.8222700	0.0697000	0.5610700	0.3432100	0.0814200	0.4968500	-0.1814000	0.1272600	0.5951800	0.8217500	-0.1589900	0.5562600	0.3475300	-0.1766900	0.5287500	-0.1686600	-0.2404600	0.7350200	-0.2196700	-0.3100300	0.6611200	-0.2235300	-0.3443900	0.4718600	-0.2249700	-0.2128000	0.7083400	-0.2315900	0.2275000	0.6655300	-0.2313200	0.2512900	0.5048200	-0.2161900	0.0962100
622	10.3500000	0.5827100	1.3774100	-0.0740400	0.6046100	1.3767300	0.1119200	0.8390700	1.1628500	0.1798300	1.1168600	1.2211300	0.0547600	0.5996200	1.3780500	-0.2450100	0.9269700	1.1887800	-0.2527700	1.1517600	1.2216200	-0.1126000	0.6051400	0.8223000	-0.0429300	0.6025300	0.8211200	0.0650100	0.5506700	0.3411600	0.0784300	0.5051900	-0.1786100	0.1228600	0.6042100	0.8198500	-0.1632400	0.5559000	0.3428100	-0.1776300	0.5286200	-0.1688400	-0.2405800	0.7438600	-0.2168100	-0.3134600	0.6620100	-0.2234600	-0.3445700	0.4715900	-0.2245700	-0.2126300	0.7001000	-0.2350200	0.2319400	0.6654500	-0.2318100	0.2514500	0.5037900	-0.2163500	0.0965100
623	10.3666667	0.5831200	1.3747000	-0.0736000	0.6051100	1.3761900	0.1119100	0.8451700	1.1609500	0.1885300	1.1148600	1.2147400	0.0597400	0.5791700	1.3753400	-0.2450300	0.9202700	1.1844600	-0.2555400	1.1515600	1.2174700	-0.1048200	0.6253200	0.8236000	-0.0436400	0.6427000	0.8281900	0.0709200	0.5513700	0.3411500	0.0781600	0.4952700	-0.1818800	0.1197700	0.6052500	0.8229100	-0.1631300	0.5667100	0.3580100	-0.1721800	0.5288200	-0.1686300	-0.2404300	0.7442500	-0.2163100	-0.3138000	0.6706500	-0.2200700	-0.3481500	0.4736400	-0.2286100	-0.2121200	0.7085000	-0.2318000	0.2274600	0.6656400	-0.2316100	0.2512500	0.4955100	-0.2192000	0.1007400
624	10.3833333	0.5725000	1.3742600	-0.0777100	0.6046700	1.3723300	0.1118200	0.8406500	1.1653500	0.1875700	1.1254600	1.2063600	0.0654700	0.5805800	1.3743800	-0.2449500	0.8934400	1.1798100	-0.2682000	1.1458700	1.2149200	-0.1015700	0.6521700	0.8242700	-0.0487800	0.6512300	0.8234600	0.0665200	0.5602000	0.3466100	0.0731100	0.4950600	-0.1819500	0.1198100	0.6239200	0.8221900	-0.1716900	0.5656700	0.3531400	-0.1730300	0.5284800	-0.1688000	-0.2405600	0.7530900	-0.2132800	-0.3173400	0.6809800	-0.2197300	-0.3515200	0.4733000	-0.2287100	-0.2119300	0.7082600	-0.2322400	0.2273600	0.6656300	-0.2321000	0.2514300	0.4946400	-0.2195500	0.1010700
625	10.4000000	0.5731500	1.3674100	-0.0774100	0.5946400	1.3689400	0.1085200	0.8348600	1.1638900	0.1858900	1.1007600	1.2045000	0.0680200	0.5783800	1.3717900	-0.2534500	0.8776500	1.1676300	-0.2753500	1.1512000	1.2082100	-0.1047700	0.6615600	0.8244100	-0.0531600	0.6607900	0.8275100	0.0702300	0.5700800	0.3485900	0.0681800	0.4953000	-0.1818500	0.1197600	0.6431800	0.8198900	-0.1801600	0.5659000	0.3452200	-0.1811800	0.5286400	-0.1687400	-0.2404000	0.7535700	-0.2131400	-0.3176100	0.6709100	-0.2233200	-0.3475500	0.4736100	-0.2294600	-0.2120300	0.7083800	-0.2319800	0.2274300	0.6651800	-0.2348700	0.2518200	0.4951900	-0.2190900	0.1008800
626	10.4166667	0.5721300	1.3607400	-0.0780200	0.5937100	1.3661300	0.1085600	0.8113200	1.1633300	0.1782100	1.0949200	1.1985500	0.0675400	0.5703400	1.3604500	-0.2575500	0.8594300	1.1501400	-0.2763800	1.1446000	1.2051600	-0.1088800	0.6617300	0.8178300	-0.0532500	0.6621000	0.8170200	0.0696200	0.5790400	0.3462200	0.0633100	0.4949800	-0.1819300	0.1198600	0.6520600	0.8207400	-0.1768900	0.5751100	0.3550500	-0.1772400	0.5290100	-0.1651400	-0.2400500	0.7532300	-0.2133700	-0.3173200	0.6716300	-0.2232200	-0.3477900	0.4733000	-0.2293700	-0.2118600	0.7080800	-0.2321800	0.2272300	0.6554500	-0.2353300	0.2487200	0.4943800	-0.2195000	0.1011700
627	10.4333333	0.5816800	1.3532300	-0.0817700	0.5945900	1.3625700	0.1086000	0.7778900	1.1583800	0.1747100	1.0647500	1.1928700	0.0814400	0.5684800	1.3573600	-0.2661600	0.8533000	1.1382000	-0.2794700	1.1428300	1.2015300	-0.1084800	0.6627100	0.8169500	-0.0533300	0.6717800	0.8138300	0.0734600	0.5699400	0.3423500	0.0690600	0.4952600	-0.1819200	0.1197800	0.6614100	0.8184400	-0.1804900	0.5657600	0.3450500	-0.1813900	0.5286600	-0.1687700	-0.2403800	0.7543400	-0.2160300	-0.3169900	0.6806900	-0.2229100	-0.3507100	0.4737400	-0.2298500	-0.2120000	0.7166700	-0.2287300	0.2227900	0.6652800	-0.2345900	0.2518000	0.4951800	-0.2191400	0.1008400
